<svg xmlns="http://www.w3.org/2000/svg" xmlns:xlink="http://www.w3.org/1999/xlink" data-name="Layer 1" width="952.34971" height="710" viewBox="0 0 952.34971 710"><title>winter_magic</title><circle cx="828.12113" cy="568.64225" r="86.29225" fill="#2f2e41"/><polygon points="766.65 674.925 742.805 664.031 764.211 613.9 788.056 624.794 766.65 674.925" fill="#2f2e41"/><rect x="924.78134" y="734.01111" width="26.21537" height="46.9692" transform="translate(275.77259 -416.2434) rotate(24.55435)" fill="#2f2e41"/><ellipse cx="931.05487" cy="785.59698" rx="8.1923" ry="21.84614" transform="translate(-406.86062 590.54487) rotate(-35.44565)" fill="#2f2e41"/><ellipse cx="882.47138" cy="771.67244" rx="8.1923" ry="21.84614" transform="translate(-407.78953 559.78913) rotate(-35.44565)" fill="#2f2e41"/><circle cx="839.18648" cy="549.67954" r="29.49229" fill="#fff"/><circle cx="828.54243" cy="536.42793" r="9.83076" fill="#3f3d56"/><path d="M909.15776,555.86537c6.62965-31.27814,39.99126-50.702,74.51524-43.38432s57.13679,38.60569,50.50714,69.88383-32.17443,32.26046-66.69841,24.94282S902.5281,587.1435,909.15776,555.86537Z" transform="translate(-123.82515 -95)" fill="#cfcce0"/><ellipse cx="1033.04003" cy="668.07946" rx="13.5449" ry="43.14613" transform="translate(216.3937 1589.69181) rotate(-88.61681)" fill="#2f2e41"/><ellipse cx="861.94055" cy="653.55696" rx="13.5449" ry="43.14613" transform="translate(63.94262 1404.47024) rotate(-88.61681)" fill="#2f2e41"/><path d="M920.584,690.745a19.66153,19.66153,0,1,0,35.767,16.34094c4.51242-9.87677-2.55973-15.58037-12.43651-20.09279S925.09638,680.86823,920.584,690.745Z" transform="translate(-123.82515 -95)" fill="#fff"/><circle cx="38.22075" cy="30.02703" r="19.02703" fill="#cfcce0"/><path d="M931.69783,585.47891c.07851,161.66361-96.00162,218.14966-214.54529,218.20723q-4.13037.002-8.22089-.08824-8.241-.17377-16.3105-.743c-106.99333-7.52335-190.15289-66.82067-190.2259-217.16747-.07556-155.5903,198.6843-352.03883,213.59065-366.56434.013,0,.013,0,.02621-.0132.5663-.55358.85613-.83034.85613-.83034S931.61933,423.8284,931.69783,585.47891Z" transform="translate(-123.82515 -95)" fill="#ffd9da"/><path d="M709.328,778.96147l78.45323-109.7286L709.13621,791.003l-.20456,12.59487q-8.241-.17377-16.3105-.743l8.37951-161.73366-.06638-1.25147.14462-.23729.79636-15.28271L622.9142,502.35312,702.10675,612.901l.19923,3.24085,6.33023-122.19612L641.02962,367.87268,709.45578,472.471l6.53012-253.34795.02581-.84312.0004.82992L715.00269,418.901l67.19063-79.23743-67.47223,96.4434L712.9957,545.52156l62.75151-105.03079L712.75328,561.60772l-.95854,60.84007,91.06977-146.2016L711.44931,643.672Z" transform="translate(-123.82515 -95)" fill="#3f3d56"/><circle cx="273.66784" cy="25" r="5" fill="#cfcce0"/><circle cx="316.66784" cy="170" r="5" fill="#cfcce0"/><circle cx="624.66784" cy="204" r="5" fill="#cfcce0"/><circle cx="835.66784" cy="364" r="5" fill="#cfcce0"/><circle cx="704.66784" cy="478" r="5" fill="#cfcce0"/><circle cx="420.66784" cy="515" r="5" fill="#cfcce0"/><circle cx="562.66784" cy="11" r="11" fill="#cfcce0"/><circle cx="521.66784" cy="582" r="11" fill="#cfcce0"/><circle cx="773.66784" cy="192" r="11" fill="#cfcce0"/><circle cx="463.66784" cy="353" r="11" fill="#cfcce0"/></svg>