<svg xmlns="http://www.w3.org/2000/svg" xmlns:xlink="http://www.w3.org/1999/xlink" data-name="Layer 1" width="746.66906" height="798.37713" viewBox="0 0 746.66906 798.37713"><title>different love</title><circle cx="399.34532" cy="347" r="347" fill="#f2f2f2"/><g id="f9f9bcf5-f65d-4586-b32b-ca2676d797c4" data-name="ground"><path d="M973.02518,707.67834c0,7.12408-161.70573,45.73381-361.17986,45.73381s-361.17985-38.60973-361.17985-45.73381S412.3712,712.369,611.84532,712.369,973.02518,700.55426,973.02518,707.67834Z" transform="translate(-226.66547 -50.81143)" fill="#3f3d56"/><path d="M973.02518,707.67834c0,7.12408-161.70573,45.73381-361.17986,45.73381s-361.17985-38.60973-361.17985-45.73381S412.3712,712.369,611.84532,712.369,973.02518,700.55426,973.02518,707.67834Z" transform="translate(-226.66547 -50.81143)" opacity="0.1"/><ellipse cx="385.17986" cy="656.86691" rx="361.17986" ry="12.89928" fill="#3f3d56"/></g><line x1="730.2518" y1="653.34892" x2="730.2518" y2="537.2554" fill="#3f3d56" stroke="#3f3d56" stroke-miterlimit="10" stroke-width="2"/><circle cx="730.2518" cy="537.2554" r="16.41727" fill="#3f3d56"/><path d="M956.91727,659.61767s-2.34533-50.44293-50.42446-44.57962" transform="translate(-226.66547 -50.81143)" fill="#3f3d56"/><line x1="66.84173" y1="662.0036" x2="66.84173" y2="280" fill="#3f3d56" stroke="#3f3d56" stroke-miterlimit="10" stroke-width="2"/><circle cx="66.84173" cy="279.81655" r="16.41727" fill="#3f3d56"/><circle cx="16.41727" cy="559.98201" r="16.41727" fill="#3f3d56"/><path d="M293.50719,414.48817s-2.34532-50.44292-50.42446-44.57961" transform="translate(-226.66547 -50.81143)" fill="#3f3d56"/><path d="M293.50719,557.48817s-2.34532-50.44292-50.42446-44.57961" transform="translate(-226.66547 -50.81143)" fill="#3f3d56"/><path d="M293.50719,708.30226s10.554-92.81816-50.42446-97.50881" transform="translate(-226.66547 -50.81143)" fill="none" stroke="#3f3d56" stroke-miterlimit="10" stroke-width="2"/><circle cx="117.27338" cy="559.98201" r="16.41727" fill="#3f3d56"/><path d="M293.51439,708.30226s-10.554-92.81816,50.42446-97.50881" transform="translate(-226.66547 -50.81143)" fill="none" stroke="#3f3d56" stroke-miterlimit="10" stroke-width="2"/><circle cx="118.27338" cy="405.98201" r="16.41727" fill="#3f3d56"/><path d="M294.51439,554.30226s-10.554-92.81816,50.42446-97.50881" transform="translate(-226.66547 -50.81143)" fill="none" stroke="#3f3d56" stroke-miterlimit="10" stroke-width="2"/><line x1="603.97842" y1="651.0036" x2="603.97842" y2="418.81655" fill="#3f3d56" stroke="#3f3d56" stroke-miterlimit="10" stroke-width="2"/><circle cx="603.97842" cy="418.81655" r="16.41727" fill="#3f3d56"/><path d="M830.64388,536.48817s2.34533-50.44292,50.42447-44.57961" transform="translate(-226.66547 -50.81143)" fill="#3f3d56"/><path d="M830.64388,697.30226s-10.55395-92.81816,50.42447-97.50881" transform="translate(-226.66547 -50.81143)" fill="none" stroke="#3f3d56" stroke-miterlimit="10" stroke-width="2"/><circle cx="654.40288" cy="548.98201" r="16.41727" fill="#3f3d56"/><circle cx="584.34532" cy="178" r="64" fill="#ff6584"/><circle cx="478.74191" cy="543.9364" r="79" fill="#2f2e41"/><rect x="717.40738" y="656.74783" width="24" height="43" transform="translate(1232.14928 1305.68423) rotate(-180)" fill="#2f2e41"/><rect x="669.40738" y="656.74783" width="24" height="43" transform="translate(1136.14928 1305.68423) rotate(-180)" fill="#2f2e41"/><ellipse cx="676.40738" cy="704.24783" rx="20" ry="7.5" transform="translate(-488.16798 381.74357) rotate(-30)" fill="#2f2e41"/><ellipse cx="723.40738" cy="704.24783" rx="20" ry="7.5" transform="translate(-481.87117 405.24357) rotate(-30)" fill="#2f2e41"/><circle cx="476.74191" cy="523.9364" r="27" fill="#fff"/><circle cx="467.54646" cy="512.4364" r="9" fill="#3f3d56"/><path d="M782.04,521.28011c6.37889-28.56758-14.01185-57.43392-45.544-64.47477s-62.2651,10.41-68.644,38.9776,14.51861,39.10379,46.05075,46.14464S775.66116,549.84769,782.04,521.28011Z" transform="translate(-226.66547 -50.81143)" fill="#989898"/><ellipse cx="636.19226" cy="567.59148" rx="12.40027" ry="39.5" transform="translate(-362.60752 878.31743) rotate(-66.82884)" fill="#2f2e41"/><ellipse cx="784.19226" cy="620.59148" rx="12.40027" ry="39.5" transform="translate(-321.56712 1046.52439) rotate(-66.82884)" fill="#2f2e41"/><path d="M721.21193,629.24783a18,18,0,0,1-36,0c0-9.94113,8.05887-12,18-12S721.21193,619.3067,721.21193,629.24783Z" transform="translate(-226.66547 -50.81143)" fill="#fff"/><line x1="384.58273" y1="520.34892" x2="384.58273" y2="404.2554" fill="none" stroke="#6c63ff" stroke-miterlimit="10" stroke-width="2"/><circle cx="384.58273" cy="404.2554" r="16.41727" fill="#989898"/><path d="M611.2482,526.61767s-2.34532-50.44293-50.42446-44.57962" transform="translate(-226.66547 -50.81143)" fill="#989898"/></svg>